<svg width="679" height="458" viewBox="0 0 679 458" fill="none" xmlns="http://www.w3.org/2000/svg">
<g opacity="0.4">
<path d="M32.6679 178.94L34.5324 182.704L38.6988 183.314L35.6833 186.249L36.3969 190.392L32.6679 188.435L28.9503 190.392L29.6639 186.249L26.6484 183.314L30.8148 182.704L32.6679 178.94Z" fill="#EBEBEB"/>
<path d="M97.9882 276L99.8527 279.775L104.019 280.385L101.004 283.308L101.717 287.463L97.9882 285.507L94.2706 287.463L94.9842 283.308L91.9688 280.385L96.1351 279.775L97.9882 276Z" fill="#F5F5F5"/>
<path d="M133.988 194L135.853 197.764L140.008 198.374L136.992 201.308L137.706 205.452L133.988 203.495L130.271 205.452L130.973 201.308L127.969 198.374L132.124 197.764L133.988 194Z" fill="#F5F5F5"/>
<path d="M162.598 112.071L163.288 113.475L164.842 113.705C164.929 113.716 165.011 113.752 165.078 113.808C165.145 113.864 165.194 113.938 165.221 114.022C165.248 114.105 165.25 114.194 165.228 114.279C165.205 114.363 165.16 114.44 165.095 114.499L163.944 115.593L164.209 117.135C164.223 117.221 164.212 117.309 164.179 117.389C164.146 117.469 164.091 117.539 164.021 117.59C163.951 117.641 163.868 117.672 163.781 117.679C163.695 117.686 163.608 117.669 163.53 117.63L162.149 116.893L160.768 117.63C160.69 117.669 160.603 117.686 160.517 117.679C160.43 117.672 160.347 117.641 160.277 117.59C160.207 117.539 160.152 117.469 160.119 117.389C160.086 117.309 160.075 117.221 160.089 117.135L160.342 115.593L159.191 114.499C159.127 114.439 159.081 114.362 159.059 114.276C159.037 114.191 159.041 114.101 159.069 114.017C159.096 113.934 159.148 113.86 159.216 113.804C159.285 113.749 159.368 113.715 159.456 113.705L160.998 113.475L161.689 112.071C161.716 111.971 161.776 111.884 161.858 111.821C161.94 111.759 162.04 111.725 162.143 111.725C162.246 111.725 162.347 111.759 162.429 111.821C162.511 111.884 162.57 111.971 162.598 112.071Z" fill="#EBEBEB"/>
<path d="M9.50834 305.326L10.1989 306.719L11.7412 306.949C11.8287 306.961 11.9111 306.998 11.979 307.054C12.0469 307.111 12.0975 307.185 12.1251 307.269C12.1527 307.353 12.1561 307.443 12.135 307.529C12.114 307.615 12.0692 307.693 12.0059 307.755L10.8549 308.837L11.1197 310.379C11.1332 310.465 11.1229 310.553 11.0897 310.633C11.0565 310.713 11.0017 310.783 10.9315 310.834C10.8613 310.885 10.7783 310.916 10.6917 310.923C10.605 310.93 10.5181 310.913 10.4406 310.874L9.05947 310.149L7.67834 310.874C7.60079 310.913 7.51392 310.93 7.4273 310.923C7.34067 310.916 7.25767 310.885 7.18743 310.834C7.1172 310.783 7.06247 310.713 7.02927 310.633C6.99607 310.553 6.98569 310.465 6.99929 310.379L7.26401 308.837L6.11307 307.755C6.04994 307.694 6.00502 307.617 5.98336 307.532C5.9617 307.447 5.96416 307.357 5.99046 307.274C6.01676 307.19 6.06585 307.115 6.13223 307.058C6.19862 307.001 6.27966 306.963 6.36627 306.949L7.90853 306.719L8.61061 305.326C8.64136 305.231 8.70137 305.149 8.78201 305.09C8.86264 305.032 8.95978 305 9.05947 305C9.15917 305 9.2563 305.032 9.33694 305.09C9.41758 305.149 9.47758 305.231 9.50834 305.326Z" fill="#F5F5F5"/>
<path d="M3.54957 97.2811L4.24013 98.6853L5.7939 98.9039C5.88051 98.9178 5.96155 98.9554 6.02793 99.0128C6.09432 99.0701 6.14342 99.1448 6.16971 99.2284C6.19601 99.3121 6.19846 99.4015 6.17681 99.4864C6.15515 99.5714 6.11024 99.6487 6.0471 99.7096L4.89616 100.861L5.16088 102.391C5.17928 102.478 5.17214 102.569 5.14034 102.651C5.10853 102.734 5.05342 102.806 4.98164 102.859C4.90986 102.911 4.82448 102.941 4.7358 102.946C4.64711 102.951 4.55891 102.93 4.48183 102.886L3.1007 102.161L1.71958 102.886C1.64249 102.93 1.55428 102.951 1.4656 102.946C1.37692 102.941 1.29154 102.911 1.21977 102.859C1.14799 102.806 1.09287 102.734 1.06107 102.651C1.02926 102.569 1.02213 102.478 1.04052 102.391L1.29373 100.861L0.14279 99.7096C0.0794487 99.648 0.0346881 99.5698 0.0136127 99.4839C-0.00746275 99.3981 -0.00400974 99.3081 0.0235791 99.2241C0.0511679 99.1401 0.101783 99.0656 0.169659 99.009C0.237536 98.9524 0.319945 98.916 0.407501 98.9039L1.94976 98.6853L2.68636 97.2811C2.72333 97.1975 2.78381 97.1264 2.86043 97.0765C2.93705 97.0266 3.02652 97 3.11797 97C3.20941 97 3.29888 97.0266 3.3755 97.0765C3.45213 97.1264 3.5126 97.1975 3.54957 97.2811Z" fill="#EBEBEB"/>
</g>
<g opacity="0.5">
<path d="M516.17 127.798L519.807 129.899L523.614 128.099L522.729 132.212L525.618 135.267L521.429 135.703L519.418 139.392L517.717 135.547L513.581 134.773L516.712 131.958L516.17 127.798Z" fill="#EBEBEB"/>
<path d="M624.316 172.429L627.96 174.539L631.767 172.739L630.875 176.844L633.771 179.908L629.582 180.344L627.571 184.032L625.863 180.178L621.734 179.414L624.865 176.598L624.316 172.429Z" fill="#F5F5F5"/>
<path d="M608.871 84.2164L612.508 86.3172L616.305 84.5237L615.42 88.6375L618.309 91.692L614.13 92.1221L612.119 95.8102L610.409 91.9716L606.282 91.1919L609.403 88.3826L608.871 84.2164Z" fill="#F5F5F5"/>
<path d="M537.312 30.1562L538.664 30.9428L540.085 30.2739C540.164 30.2353 540.252 30.2198 540.339 30.2294C540.426 30.2389 540.508 30.273 540.576 30.3276C540.645 30.3823 540.696 30.4552 540.724 30.538C540.752 30.6207 540.757 30.7098 540.736 30.7948L540.383 32.3426L541.458 33.4801C541.517 33.544 541.557 33.623 541.574 33.7082C541.591 33.7935 541.584 33.8818 541.554 33.9633C541.523 34.0448 541.471 34.1164 541.403 34.1702C541.335 34.224 541.253 34.258 541.167 34.2683L539.609 34.42L538.867 35.7982C538.824 35.8739 538.761 35.9362 538.685 35.9783C538.609 36.0205 538.523 36.0408 538.436 36.0371C538.349 36.0334 538.265 36.0057 538.193 35.9572C538.121 35.9088 538.064 35.8413 538.027 35.7623L537.384 34.338L535.82 34.0651C535.733 34.0507 535.652 34.0116 535.587 33.9525C535.521 33.8934 535.474 33.8167 535.451 33.7317C535.428 33.6466 535.43 33.5566 535.456 33.4725C535.483 33.3885 535.533 33.3138 535.601 33.2573L536.757 32.2114L536.555 30.6599C536.523 30.5618 536.523 30.456 536.557 30.3586C536.591 30.2612 536.656 30.1776 536.742 30.1204C536.828 30.0633 536.93 30.0359 537.033 30.0424C537.136 30.0488 537.234 30.0888 537.312 30.1562Z" fill="#EBEBEB"/>
<path d="M566.891 245.854L568.238 246.631L569.649 245.968C569.729 245.929 569.818 245.914 569.906 245.924C569.993 245.933 570.077 245.967 570.146 246.022C570.216 246.076 570.269 246.15 570.299 246.233C570.329 246.316 570.335 246.406 570.316 246.492L569.957 248.03L571.032 249.168C571.09 249.232 571.131 249.311 571.147 249.396C571.164 249.481 571.157 249.569 571.127 249.651C571.097 249.732 571.045 249.804 570.977 249.858C570.908 249.912 570.827 249.946 570.74 249.956L569.189 250.117L568.441 251.486C568.398 251.562 568.335 251.624 568.259 251.666C568.183 251.708 568.097 251.728 568.01 251.725C567.923 251.721 567.839 251.693 567.767 251.645C567.695 251.596 567.637 251.529 567.601 251.45L566.967 250.019L565.41 249.756C565.323 249.74 565.243 249.701 565.178 249.642C565.113 249.583 565.066 249.508 565.041 249.423C565.017 249.339 565.016 249.25 565.04 249.165C565.063 249.081 565.11 249.004 565.174 248.945L566.331 247.899L566.144 246.351C566.117 246.255 566.121 246.153 566.156 246.059C566.191 245.966 566.254 245.886 566.337 245.83C566.42 245.775 566.518 245.748 566.618 245.752C566.718 245.756 566.813 245.792 566.891 245.854Z" fill="#F5F5F5"/>
<path d="M446.697 75.9372L448.05 76.7238L449.464 76.0453C449.544 76.0088 449.633 75.9953 449.72 76.0062C449.807 76.0172 449.889 76.0522 449.957 76.1073C450.025 76.1624 450.077 76.2354 450.106 76.3182C450.135 76.4009 450.14 76.4901 450.122 76.5758L449.801 78.1716L450.869 79.2994C450.932 79.3616 450.977 79.4408 450.996 79.5274C451.015 79.6141 451.009 79.7045 450.979 79.7878C450.948 79.8711 450.894 79.9438 450.822 79.997C450.751 80.0501 450.666 80.0816 450.578 80.0876L449.026 80.2489L448.278 81.6176C448.238 81.697 448.176 81.7632 448.1 81.8083C448.023 81.8533 447.935 81.8753 447.847 81.8715C447.758 81.8677 447.672 81.8383 447.6 81.7869C447.527 81.7354 447.471 81.6642 447.438 81.5816L446.801 80.1669L445.206 79.8461C445.119 79.8299 445.038 79.7896 444.973 79.7298C444.908 79.67 444.861 79.5931 444.837 79.5079C444.814 79.4227 444.815 79.3327 444.84 79.2479C444.865 79.1632 444.914 79.0872 444.98 79.0287L446.143 77.9924L445.978 76.4153C445.963 76.3252 445.974 76.2325 446.01 76.1485C446.046 76.0645 446.106 75.9929 446.182 75.9422C446.258 75.8916 446.347 75.8641 446.439 75.8632C446.53 75.8624 446.62 75.8881 446.697 75.9372Z" fill="#EBEBEB"/>
</g>
<path d="M181.699 158.75L183.564 162.513L187.73 163.123L184.715 166.058L185.428 170.202L181.699 168.245L177.982 170.202L178.695 166.058L175.68 163.123L179.846 162.513L181.699 158.75Z" fill="#EBEBEB"/>
<path d="M554.199 336.259L556.064 340.034L560.23 340.644L557.215 343.568L557.928 347.723L554.199 345.766L550.482 347.723L551.195 343.568L548.18 340.644L552.346 340.034L554.199 336.259Z" fill="#F5F5F5"/>
<path d="M480.426 445.702L482.29 449.466L486.445 450.076L483.43 453.01L484.143 457.154L480.426 455.197L476.708 457.154L477.41 453.01L474.406 450.076L478.561 449.466L480.426 445.702Z" fill="#F5F5F5"/>
<path d="M311.629 91.8804L312.32 93.2845L313.873 93.5147C313.96 93.5261 314.042 93.5619 314.109 93.6179C314.176 93.674 314.226 93.748 314.252 93.8313C314.279 93.9147 314.281 94.0038 314.259 94.0884C314.237 94.1729 314.191 94.2494 314.127 94.3089L312.976 95.4022L313.24 96.9445C313.254 97.0303 313.244 97.1183 313.21 97.1986C313.177 97.2789 313.122 97.3485 313.052 97.3997C312.982 97.4509 312.899 97.4817 312.812 97.4887C312.726 97.4957 312.639 97.4786 312.561 97.4394L311.18 96.7028L309.799 97.4394C309.722 97.4786 309.635 97.4957 309.548 97.4887C309.461 97.4817 309.378 97.4509 309.308 97.3997C309.238 97.3485 309.183 97.2789 309.15 97.1986C309.117 97.1183 309.106 97.0303 309.12 96.9445L309.373 95.4022L308.222 94.3089C308.158 94.2487 308.112 94.1713 308.09 94.0858C308.069 94.0004 308.072 93.9105 308.1 93.8268C308.128 93.7432 308.179 93.6693 308.248 93.614C308.316 93.5586 308.399 93.5242 308.487 93.5147L310.029 93.2845L310.72 91.8804C310.747 91.781 310.807 91.6935 310.889 91.6311C310.971 91.5687 311.071 91.535 311.174 91.535C311.278 91.535 311.378 91.5687 311.46 91.6311C311.542 91.6935 311.601 91.781 311.629 91.8804Z" fill="#EBEBEB"/>
<path d="M121.54 427.782L122.23 429.175L123.772 429.405C123.86 429.417 123.942 429.453 124.01 429.51C124.078 429.566 124.129 429.641 124.156 429.725C124.184 429.809 124.187 429.899 124.166 429.985C124.145 430.071 124.1 430.149 124.037 430.21L122.886 431.292L123.151 432.835C123.164 432.92 123.154 433.008 123.121 433.089C123.088 433.169 123.033 433.238 122.963 433.29C122.893 433.341 122.81 433.372 122.723 433.379C122.636 433.386 122.549 433.369 122.472 433.329L121.091 432.604L119.71 433.329C119.632 433.369 119.545 433.386 119.459 433.379C119.372 433.372 119.289 433.341 119.219 433.29C119.148 433.238 119.094 433.169 119.061 433.089C119.027 433.008 119.017 432.92 119.031 432.835L119.295 431.292L118.144 430.21C118.081 430.149 118.036 430.072 118.015 429.987C117.993 429.902 117.995 429.813 118.022 429.729C118.048 429.646 118.097 429.571 118.163 429.514C118.23 429.456 118.311 429.419 118.398 429.405L119.94 429.175L120.642 427.782C120.673 427.687 120.733 427.604 120.813 427.546C120.894 427.487 120.991 427.456 121.091 427.456C121.19 427.456 121.288 427.487 121.368 427.546C121.449 427.604 121.509 427.687 121.54 427.782Z" fill="#F5F5F5"/>
<path d="M152.581 77.0908L153.271 78.4949L154.825 78.7136C154.912 78.7274 154.993 78.7651 155.059 78.8225C155.126 78.8798 155.175 78.9545 155.201 79.0381C155.227 79.1218 155.23 79.2111 155.208 79.2961C155.186 79.3811 155.141 79.4584 155.078 79.5193L153.927 80.6702L154.192 82.201C154.211 82.2879 154.203 82.3782 154.172 82.4611C154.14 82.5441 154.085 82.616 154.013 82.6683C153.941 82.7207 153.856 82.7511 153.767 82.756C153.678 82.7609 153.59 82.74 153.513 82.6959L152.132 81.9708L150.751 82.6959C150.674 82.74 150.586 82.7609 150.497 82.756C150.408 82.7511 150.323 82.7207 150.251 82.6683C150.179 82.616 150.124 82.5441 150.092 82.4611C150.061 82.3782 150.053 82.2879 150.072 82.201L150.325 80.6702L149.174 79.5193C149.111 79.4576 149.066 79.3795 149.045 79.2936C149.024 79.2078 149.027 79.1178 149.055 79.0338C149.082 78.9498 149.133 78.8753 149.201 78.8187C149.269 78.7621 149.351 78.7257 149.439 78.7136L150.981 78.4949L151.718 77.0908C151.755 77.0072 151.815 76.9361 151.892 76.8862C151.968 76.8363 152.058 76.8097 152.149 76.8097C152.241 76.8097 152.33 76.8363 152.407 76.8862C152.483 76.9361 152.544 77.0072 152.581 77.0908Z" fill="#EBEBEB"/>
<path d="M150.716 354.49C150.718 354.793 150.63 355.09 150.463 355.344C150.297 355.597 150.058 355.795 149.779 355.913C149.499 356.03 149.191 356.062 148.893 356.004C148.596 355.947 148.322 355.802 148.107 355.588C147.892 355.374 147.745 355.102 147.685 354.805C147.625 354.507 147.654 354.199 147.77 353.919C147.885 353.638 148.081 353.398 148.333 353.23C148.585 353.061 148.882 352.971 149.185 352.971C149.589 352.971 149.977 353.131 150.263 353.415C150.55 353.7 150.713 354.086 150.716 354.49Z" fill="#EBEBEB"/>
<path d="M368.864 162.939C368.866 163.243 368.779 163.54 368.612 163.793C368.445 164.046 368.207 164.244 367.927 164.362C367.648 164.479 367.34 164.511 367.042 164.454C366.744 164.396 366.47 164.251 366.255 164.037C366.04 163.824 365.893 163.551 365.833 163.254C365.773 162.957 365.803 162.648 365.918 162.368C366.034 162.087 366.23 161.848 366.482 161.679C366.734 161.51 367.03 161.42 367.333 161.42C367.534 161.419 367.733 161.457 367.918 161.532C368.104 161.608 368.273 161.72 368.415 161.861C368.557 162.002 368.67 162.17 368.747 162.355C368.825 162.54 368.864 162.739 368.864 162.939Z" fill="#EBEBEB"/>
<path d="M289.497 78.3568C289.497 78.6596 289.407 78.9556 289.239 79.2073C289.071 79.459 288.832 79.6552 288.552 79.7711C288.272 79.8869 287.965 79.9172 287.668 79.8582C287.371 79.7991 287.098 79.6533 286.884 79.4392C286.67 79.2252 286.524 78.9524 286.465 78.6555C286.406 78.3585 286.436 78.0508 286.552 77.7711C286.668 77.4913 286.864 77.2523 287.116 77.0841C287.368 76.9159 287.664 76.8261 287.966 76.8261C288.371 76.8291 288.759 76.9914 289.045 77.2778C289.332 77.5642 289.494 77.9518 289.497 78.3568Z" fill="#F5F5F5"/>
<path d="M291.92 451.426C296.467 450.353 299.284 445.797 298.21 441.25C297.137 436.703 292.581 433.887 288.034 434.96C283.487 436.033 280.671 440.589 281.744 445.136C282.817 449.683 287.373 452.5 291.92 451.426Z" fill="#F0F0F0"/>
<path d="M287.067 438.244C285.334 438.24 283.645 438.789 282.245 439.809C281.53 441.45 281.354 443.276 281.743 445.023C282.133 446.77 283.067 448.348 284.411 449.53C285.756 450.712 287.441 451.436 289.223 451.598C291.006 451.76 292.794 451.352 294.33 450.432C295.009 449.175 295.351 447.763 295.321 446.334C295.291 444.905 294.89 443.508 294.158 442.281C293.426 441.053 292.387 440.037 291.144 439.331C289.901 438.626 288.497 438.255 287.067 438.255V438.244Z" fill="#E0E0E0"/>
<path d="M221.558 296.161H151.523V264.544L221.558 181.285H255.073V266.34H272.441V296.161H255.073V322.034H221.558V296.161ZM221.558 266.34V222.788L184.544 266.34H221.558Z" fill="#4DB5C4"/>
<path d="M284.422 252.275C284.422 225.965 289.156 207.55 298.625 197.03C308.093 186.511 322.522 181.255 341.912 181.262C351.219 181.262 358.865 182.413 364.85 184.715C370.287 186.674 375.265 189.725 379.478 193.681C383.03 197.072 386.038 200.988 388.398 205.294C390.733 209.789 392.493 214.561 393.635 219.496C396.237 230.04 397.536 240.863 397.502 251.723C397.502 276.829 393.255 295.201 384.761 306.841C376.267 318.481 361.639 324.305 340.876 324.312C329.228 324.312 319.817 322.456 312.643 318.742C305.411 314.968 299.32 309.329 294.999 302.41C291.662 297.315 289.064 290.344 287.208 281.498C285.28 271.878 284.346 262.086 284.422 252.275ZM322.564 252.367C322.564 270.015 324.118 282.05 327.226 288.472C330.333 294.894 334.849 298.121 340.772 298.152C342.652 298.173 344.517 297.82 346.26 297.115C348.002 296.41 349.588 295.365 350.923 294.043C353.793 291.304 355.903 286.976 357.254 281.06C358.604 275.144 359.279 265.937 359.279 253.438C359.279 235.069 357.722 222.719 354.606 216.389C351.491 210.059 346.818 206.898 340.588 206.905C334.235 206.905 329.631 210.132 326.777 216.585C323.922 223.038 322.518 234.965 322.564 252.367Z" fill="#4DB5C4"/>
<path d="M479.437 296.161H409.402V264.544L479.437 181.285H512.952V266.34H530.378V296.161H512.952V322.034H479.437V296.161ZM479.437 266.34V222.788L442.434 266.34H479.437Z" fill="#4DB5C4"/>
<g opacity="0.3">
<path opacity="0.3" d="M282.924 132.704C282.924 133.13 282.797 133.547 282.56 133.901C282.323 134.255 281.986 134.531 281.592 134.694C281.198 134.856 280.765 134.898 280.347 134.814C279.929 134.73 279.546 134.524 279.245 134.222C278.945 133.92 278.741 133.535 278.659 133.117C278.577 132.699 278.622 132.266 278.786 131.873C278.951 131.479 279.229 131.144 279.584 130.909C279.94 130.674 280.357 130.55 280.783 130.552C281.065 130.552 281.344 130.608 281.605 130.716C281.865 130.824 282.102 130.983 282.301 131.183C282.5 131.383 282.657 131.62 282.764 131.881C282.871 132.142 282.925 132.422 282.924 132.704Z" fill="#4DB5C4"/>
<path opacity="0.3" d="M135.57 215.376C136.409 215.376 137.089 214.696 137.089 213.857C137.089 213.018 136.409 212.338 135.57 212.338C134.731 212.338 134.051 213.018 134.051 213.857C134.051 214.696 134.731 215.376 135.57 215.376Z" fill="#4DB5C4"/>
<path opacity="0.3" d="M386.566 437.243C387.767 437.243 388.741 436.269 388.741 435.067C388.741 433.866 387.767 432.892 386.566 432.892C385.365 432.892 384.391 433.866 384.391 435.067C384.391 436.269 385.365 437.243 386.566 437.243Z" fill="#4DB5C4"/>
<path opacity="0.3" d="M438.877 348.735C439.716 348.735 440.396 348.055 440.396 347.216C440.396 346.377 439.716 345.697 438.877 345.697C438.038 345.697 437.357 346.377 437.357 347.216C437.357 348.055 438.038 348.735 438.877 348.735Z" fill="#4DB5C4"/>
<path opacity="0.3" d="M539.781 75.1572C539.781 75.4577 539.692 75.7514 539.525 76.0013C539.358 76.2511 539.12 76.4458 538.843 76.5608C538.565 76.6758 538.26 76.7059 537.965 76.6473C537.67 76.5886 537.4 76.444 537.187 76.2315C536.975 76.019 536.83 75.7483 536.771 75.4536C536.713 75.1589 536.743 74.8534 536.858 74.5758C536.973 74.2982 537.168 74.061 537.417 73.894C537.667 73.7271 537.961 73.638 538.261 73.638C538.664 73.638 539.051 73.798 539.336 74.083C539.621 74.3679 539.781 74.7543 539.781 75.1572Z" fill="#4DB5C4"/>
<path opacity="0.3" d="M250.412 44.5192C250.412 44.8197 250.322 45.1134 250.155 45.3633C249.989 45.6131 249.751 45.8078 249.474 45.9228C249.196 46.0378 248.891 46.0679 248.596 46.0093C248.301 45.9507 248.03 45.806 247.818 45.5935C247.606 45.381 247.461 45.1103 247.402 44.8156C247.344 44.5209 247.374 44.2154 247.489 43.9378C247.604 43.6602 247.798 43.423 248.048 43.256C248.298 43.0891 248.592 43 248.892 43C249.294 43.003 249.679 43.164 249.963 43.4483C250.247 43.7326 250.409 44.1172 250.412 44.5192Z" fill="#4DB5C4"/>
<path opacity="0.3" d="M371.203 124.233C372.042 124.233 372.722 123.553 372.722 122.714C372.722 121.875 372.042 121.195 371.203 121.195C370.364 121.195 369.684 121.875 369.684 122.714C369.684 123.553 370.364 124.233 371.203 124.233Z" fill="#4DB5C4"/>
</g>
<path d="M214.133 124.245C228.06 124.245 239.35 112.955 239.35 99.0277C239.35 85.1007 228.06 73.8106 214.133 73.8106C200.206 73.8106 188.916 85.1007 188.916 99.0277C188.916 112.955 200.206 124.245 214.133 124.245Z" fill="#4DB5C4"/>
<path opacity="0.7" d="M214.133 124.245C228.06 124.245 239.35 112.955 239.35 99.0277C239.35 85.1007 228.06 73.8106 214.133 73.8106C200.206 73.8106 188.916 85.1007 188.916 99.0277C188.916 112.955 200.206 124.245 214.133 124.245Z" fill="white"/>
<path opacity="0.2" d="M205.441 80.0027C202.007 79.9922 198.607 80.6855 195.451 82.0398C191.572 86.3028 189.27 91.7653 188.927 97.5185C188.585 103.272 190.222 108.969 193.568 113.662C196.913 118.355 201.764 121.761 207.315 123.314C212.865 124.867 218.78 124.472 224.075 122.196C227.358 118.578 229.519 114.085 230.298 109.262C231.076 104.439 230.437 99.4943 228.459 95.0274C226.481 90.5606 223.249 86.7641 219.155 84.099C215.06 81.4339 210.28 80.0149 205.395 80.0142L205.441 80.0027Z" fill="#4DB5C4"/>
<path opacity="0.2" d="M202.934 86.6666C202.934 87.1219 202.799 87.5669 202.546 87.9455C202.293 88.324 201.933 88.6191 201.513 88.7933C201.092 88.9675 200.629 89.0131 200.183 88.9243C199.736 88.8355 199.326 88.6162 199.004 88.2943C198.682 87.9724 198.463 87.5622 198.374 87.1157C198.285 86.6692 198.331 86.2063 198.505 85.7857C198.68 85.3651 198.975 85.0056 199.353 84.7527C199.732 84.4997 200.177 84.3647 200.632 84.3647C201.242 84.3647 201.828 84.6073 202.26 85.0389C202.691 85.4706 202.934 86.0561 202.934 86.6666Z" fill="#4DB5C4"/>
<path opacity="0.2" d="M230.049 84.3647C230.049 84.82 229.914 85.265 229.661 85.6436C229.408 86.0221 229.049 86.3172 228.628 86.4914C228.207 86.6656 227.745 86.7112 227.298 86.6224C226.852 86.5336 226.441 86.3143 226.12 85.9924C225.798 85.6705 225.578 85.2603 225.49 84.8138C225.401 84.3673 225.446 83.9044 225.621 83.4838C225.795 83.0632 226.09 82.7037 226.468 82.4508C226.847 82.1979 227.292 82.0629 227.747 82.0629C228.358 82.0629 228.943 82.3054 229.375 82.7371C229.807 83.1687 230.049 83.7542 230.049 84.3647Z" fill="#4DB5C4"/>
<path opacity="0.2" d="M225.447 100.8C225.447 101.547 225.225 102.277 224.81 102.897C224.396 103.518 223.806 104.002 223.116 104.288C222.426 104.574 221.667 104.648 220.935 104.503C220.203 104.357 219.53 103.997 219.002 103.47C218.474 102.942 218.115 102.269 217.969 101.537C217.823 100.804 217.898 100.045 218.184 99.3555C218.47 98.6657 218.953 98.0761 219.574 97.6613C220.195 97.2465 220.925 97.0251 221.672 97.0251C222.673 97.0251 223.633 97.4228 224.341 98.1307C225.049 98.8387 225.447 99.7989 225.447 100.8Z" fill="#4DB5C4"/>
<path opacity="0.2" d="M213.453 111.561C213.453 112.558 213.158 113.533 212.604 114.362C212.05 115.191 211.263 115.837 210.341 116.219C209.42 116.6 208.407 116.7 207.429 116.506C206.451 116.311 205.553 115.831 204.848 115.126C204.143 114.421 203.662 113.523 203.468 112.545C203.273 111.567 203.373 110.553 203.755 109.632C204.136 108.711 204.783 107.924 205.612 107.37C206.441 106.816 207.415 106.52 208.412 106.52C209.749 106.52 211.031 107.051 211.977 107.997C212.922 108.942 213.453 110.224 213.453 111.561Z" fill="#4DB5C4"/>
<path d="M512.996 403.205C515.803 391.308 508.436 379.388 496.539 376.58C484.642 373.772 472.722 381.14 469.914 393.037C467.106 404.933 474.474 416.854 486.371 419.661C498.267 422.469 510.188 415.101 512.996 403.205Z" fill="#4DB5C4"/>
<path opacity="0.3" d="M512.996 403.205C515.803 391.308 508.436 379.388 496.539 376.58C484.642 373.772 472.722 381.14 469.914 393.037C467.106 404.933 474.474 416.854 486.371 419.661C498.267 422.469 510.188 415.101 512.996 403.205Z" fill="white"/>
<path opacity="0.4" d="M505.435 380.985C500.528 379.504 495.26 379.773 490.53 381.745C485.8 383.717 481.901 387.271 479.5 391.798C477.099 396.326 476.344 401.547 477.365 406.569C478.386 411.591 481.119 416.103 485.098 419.334C487.161 419.961 489.306 420.279 491.462 420.278C496.032 420.277 500.488 418.862 504.221 416.227C507.954 413.591 510.78 409.866 512.311 405.561C513.842 401.255 514.003 396.582 512.771 392.182C511.54 387.782 508.978 383.87 505.435 380.985Z" fill="#4DB5C4"/>
<path d="M470.331 404.763C446.702 415.881 464.323 424.456 497.62 412.486C528.453 401.402 540.204 387.43 512.582 391.769C514.066 397.581 475.452 412.624 470.331 404.763Z" fill="#4DB5C4"/>
<path opacity="0.2" d="M505.169 181.285C474.22 202.198 434.156 229.82 423.096 296.161H420.736C431.498 230.557 470.1 202.278 501.06 181.285H505.169Z" fill="black"/>
<path d="M345.074 388.961C325.508 388.961 306.161 380.133 296.734 365.723C290.922 356.815 284.166 338.158 304.285 313.263L306.069 314.714C291.843 332.323 289.219 349.99 298.668 364.469C310.177 382.078 337.328 390.94 360.508 384.633C384.252 378.176 398.662 357.529 400.054 327.984C404.808 226.92 458.499 195.787 497.7 173.056C522.065 158.934 539.663 148.737 535.796 127.203C535.255 124.222 534.07 122.162 532.147 120.896C527.141 117.592 517.358 119.883 506.033 122.518C483.808 127.698 453.377 134.787 435.25 103.954L437.241 102.803C454.505 132.186 482.784 125.591 505.515 120.297C517.358 117.546 527.578 115.164 533.414 118.996C535.888 120.619 537.407 123.186 538.017 126.823C542.172 149.934 523.055 161.029 498.828 175.07C460.076 197.537 407.017 228.301 402.322 328.145C400.871 358.76 385.84 380.179 361.072 386.912C355.854 388.302 350.474 388.991 345.074 388.961Z" fill="#4DB5C4"/>
<path opacity="0.2" d="M345.074 388.961C325.508 388.961 306.161 380.133 296.734 365.723C290.922 356.815 284.166 338.158 304.285 313.263L306.069 314.714C291.843 332.323 289.219 349.99 298.668 364.469C310.177 382.078 337.328 390.94 360.508 384.633C384.252 378.176 398.662 357.529 400.054 327.984C404.808 226.92 458.499 195.787 497.7 173.056C522.065 158.934 539.663 148.737 535.796 127.203C535.255 124.222 534.07 122.162 532.147 120.896C527.141 117.592 517.358 119.883 506.033 122.518C483.808 127.698 453.377 134.787 435.25 103.954L437.241 102.803C454.505 132.186 482.784 125.591 505.515 120.297C517.358 117.546 527.578 115.164 533.414 118.996C535.888 120.619 537.407 123.186 538.017 126.823C542.172 149.934 523.055 161.029 498.828 175.07C460.076 197.537 407.017 228.301 402.322 328.145C400.871 358.76 385.84 380.179 361.072 386.912C355.854 388.302 350.474 388.991 345.074 388.961Z" fill="white"/>
<path d="M411.553 76.7455C416.856 76.7761 422.125 77.6025 427.182 79.197C427.182 79.197 439.843 100.8 441.339 105.749C440.81 110.629 432.58 118.628 432.58 118.628L411.553 76.7455Z" fill="#4DB5C4"/>
<path opacity="0.3" d="M411.553 76.7455C416.856 76.7761 422.125 77.6025 427.182 79.197C427.182 79.197 439.843 100.8 441.339 105.749C440.81 110.629 432.58 118.628 432.58 118.628L411.553 76.7455Z" fill="white"/>
<path d="M449.05 181.631C444.175 175.669 439.729 169.369 435.746 162.778C434.779 161.113 433.862 159.417 432.995 157.691C432.5 156.713 432.028 155.734 431.568 154.745C430.964 153.781 430.495 152.74 430.175 151.649C428.794 137.066 433.789 126.328 429.024 114.623L410.057 122.035C410.057 122.035 411.668 142.89 415.351 155.412C417.653 163.158 422.809 169.856 427.793 176.06C429.346 177.994 430.843 179.985 432.396 181.93C433.95 183.875 435.515 185.452 437 187.282C439.244 190.055 439.981 192.714 438.289 195.983L438.001 196.501C437.518 197.352 439.774 198.319 441.201 196.501C443.503 193.531 443.181 193.715 445.183 191.183C446.403 189.653 447.796 187.984 449.004 186.58C449.587 185.889 449.911 185.017 449.919 184.113C449.928 183.21 449.62 182.332 449.05 181.631Z" fill="#4DB5C4"/>
<path opacity="0.7" d="M449.05 181.631C444.175 175.669 439.729 169.369 435.746 162.778C434.779 161.113 433.862 159.417 432.995 157.691C432.5 156.713 432.028 155.734 431.568 154.745C430.964 153.781 430.495 152.74 430.175 151.649C428.794 137.066 433.789 126.328 429.024 114.623L410.057 122.035C410.057 122.035 411.668 142.89 415.351 155.412C417.653 163.158 422.809 169.856 427.793 176.06C429.346 177.994 430.843 179.985 432.396 181.93C433.95 183.875 435.515 185.452 437 187.282C439.244 190.055 439.981 192.714 438.289 195.983L438.001 196.501C437.518 197.352 439.774 198.319 441.201 196.501C443.503 193.531 443.181 193.715 445.183 191.183C446.403 189.653 447.796 187.984 449.004 186.58C449.587 185.889 449.911 185.017 449.919 184.113C449.928 183.21 449.62 182.332 449.05 181.631Z" fill="white"/>
<path opacity="0.3" d="M444.41 175.634C441.401 178.861 438.06 181.762 434.443 184.289C434.938 184.842 435.422 185.44 435.917 185.97C439.537 183.523 442.826 180.618 445.7 177.326L444.41 175.634Z" fill="#4DB5C4"/>
<path opacity="0.3" d="M449.05 181.631L448.912 181.469C448.026 182.485 447.511 183.772 447.45 185.118C447.376 186.042 447.526 186.969 447.887 187.823L448.981 186.522C449.552 185.839 449.871 184.979 449.884 184.089C449.896 183.198 449.602 182.33 449.05 181.631Z" fill="#4DB5C4"/>
<path d="M407.04 90.5568C404.983 93.6357 402.517 96.4197 399.708 98.832C398.151 100.174 396.444 101.333 394.621 102.285C393.664 102.776 392.671 103.195 391.652 103.539L390.869 103.793L390.616 103.862L390.075 104.011C389.742 104.09 389.403 104.144 389.062 104.172C388.091 104.247 387.115 104.157 386.173 103.908C384.986 103.571 383.848 103.079 382.789 102.446C381.937 101.948 381.111 101.406 380.315 100.823C378.876 99.7528 377.5 98.6 376.195 97.3703C373.677 94.985 371.367 92.3898 369.289 89.613C368.889 89.0721 368.69 88.4084 368.727 87.7365C368.764 87.0647 369.034 86.4268 369.491 85.933C369.948 85.4391 370.563 85.1203 371.23 85.0315C371.897 84.9427 372.574 85.0895 373.145 85.4466H373.237C375.953 87.173 378.692 88.9915 381.362 90.6143C382.72 91.4085 384.032 92.2141 385.333 92.8356C385.927 93.1465 386.538 93.4232 387.163 93.6643C387.553 93.8363 387.97 93.9376 388.395 93.9636C388.464 93.9636 388.395 93.883 387.969 93.8945C387.835 93.8865 387.7 93.8865 387.566 93.8945L387.313 93.9521L387.692 93.7564C388.204 93.4812 388.7 93.1777 389.177 92.8472C390.207 92.121 391.17 91.3045 392.055 90.4072C394.065 88.3 395.948 86.0747 397.694 83.7432C398.651 82.6732 399.972 81.9991 401.4 81.8533C402.828 81.7075 404.259 82.1005 405.412 82.9551C406.565 83.8098 407.357 85.0644 407.632 86.4729C407.908 87.8814 407.647 89.342 406.902 90.5683L407.04 90.5568Z" fill="#4DB5C4"/>
<path opacity="0.7" d="M407.04 90.5568C404.983 93.6357 402.517 96.4197 399.708 98.832C398.151 100.174 396.444 101.333 394.621 102.285C393.664 102.776 392.671 103.195 391.652 103.539L390.869 103.793L390.616 103.862L390.075 104.011C389.742 104.09 389.403 104.144 389.062 104.172C388.091 104.247 387.115 104.157 386.173 103.908C384.986 103.571 383.848 103.079 382.789 102.446C381.937 101.948 381.111 101.406 380.315 100.823C378.876 99.7528 377.5 98.6 376.195 97.3703C373.677 94.985 371.367 92.3898 369.289 89.613C368.889 89.0721 368.69 88.4084 368.727 87.7365C368.764 87.0647 369.034 86.4268 369.491 85.933C369.948 85.4391 370.563 85.1203 371.23 85.0315C371.897 84.9427 372.574 85.0895 373.145 85.4466H373.237C375.953 87.173 378.692 88.9915 381.362 90.6143C382.72 91.4085 384.032 92.2141 385.333 92.8356C385.927 93.1465 386.538 93.4232 387.163 93.6643C387.553 93.8363 387.97 93.9376 388.395 93.9636C388.464 93.9636 388.395 93.883 387.969 93.8945C387.835 93.8865 387.7 93.8865 387.566 93.8945L387.313 93.9521L387.692 93.7564C388.204 93.4812 388.7 93.1777 389.177 92.8472C390.207 92.121 391.17 91.3045 392.055 90.4072C394.065 88.3 395.948 86.0747 397.694 83.7432C398.651 82.6732 399.972 81.9991 401.4 81.8533C402.828 81.7075 404.259 82.1005 405.412 82.9551C406.565 83.8098 407.357 85.0644 407.632 86.4729C407.908 87.8814 407.647 89.342 406.902 90.5683L407.04 90.5568Z" fill="white"/>
<path d="M364.974 82.9836L366.321 85.2855C366.321 85.2855 367.345 88.3009 369.406 88.8534L374.999 87.0464L374.711 86.5745C373.998 85.4926 374.078 83.3864 374.32 81.637C374.562 79.8876 373.664 79.83 372.996 80.2674C372.523 80.8115 372.191 81.4637 372.03 82.1664C371.755 81.7864 371.451 81.4285 371.12 81.0961L369.417 79.3927C369.06 79.0434 368.583 78.8421 368.084 78.8293C367.584 78.8165 367.099 78.9931 366.724 79.3236L365.343 80.5551C365.015 80.8582 364.8 81.2636 364.733 81.7049C364.666 82.1461 364.751 82.597 364.974 82.9836Z" fill="#4DB5C4"/>
<path opacity="0.7" d="M364.974 82.9836L366.321 85.2855C366.321 85.2855 367.345 88.3009 369.406 88.8534L374.999 87.0464L374.711 86.5745C373.998 85.4926 374.078 83.3864 374.32 81.637C374.562 79.8876 373.664 79.83 372.996 80.2674C372.523 80.8115 372.191 81.4637 372.03 82.1664C371.755 81.7864 371.451 81.4285 371.12 81.0961L369.417 79.3927C369.06 79.0434 368.583 78.8421 368.084 78.8293C367.584 78.8165 367.099 78.9931 366.724 79.3236L365.343 80.5551C365.015 80.8582 364.8 81.2636 364.733 81.7049C364.666 82.1461 364.751 82.597 364.974 82.9836Z" fill="white"/>
<path d="M417.203 74.6968C410.998 76.3414 405.055 78.848 399.547 82.1434C398.688 82.6812 398.013 83.4688 397.614 84.4007C397.215 85.3325 397.111 86.3641 397.314 87.3572C399.536 98.222 404.588 112.77 410.044 122.035L435.491 111.504C435.664 107.015 429.483 92.4904 423.187 78.4489C422.059 75.9283 419.884 74.0523 417.203 74.6968Z" fill="#4DB5C4"/>
<path opacity="0.8" d="M417.203 74.6968C410.998 76.3414 405.055 78.848 399.547 82.1434C398.688 82.6812 398.013 83.4688 397.614 84.4007C397.215 85.3325 397.111 86.3641 397.314 87.3572C399.536 98.222 404.588 112.77 410.044 122.035L435.491 111.504C435.664 107.015 429.483 92.4904 423.187 78.4489C422.059 75.9283 419.884 74.0523 417.203 74.6968Z" fill="white"/>
<path opacity="0.3" d="M427.135 87.3457L422.082 85.6538C423.233 88.6117 427.296 92.3522 430.139 94.5505C429.218 92.2487 428.193 89.8317 427.135 87.3457Z" fill="#4DB5C4"/>
<path d="M415.535 63.3026C413.429 59.2973 408.883 57.2832 403.427 57.732C398.823 58.1233 394.749 62.8192 395.232 65.3512C395.716 67.8833 399.583 68.9652 400.32 69.8399L397.132 72.1418C396.754 72.4144 396.435 72.7606 396.195 73.1595C395.954 73.5585 395.797 74.0019 395.733 74.4632C395.668 74.9245 395.698 75.394 395.819 75.8436C395.941 76.2932 396.153 76.7135 396.441 77.0793C397.788 78.7827 399.56 80.5321 400.584 81.8212C409.401 81.591 415.926 78.2302 418.286 74.9961C417.4 70.8988 417.584 67.2848 415.535 63.3026Z" fill="#4DB5C4"/>
<path opacity="0.8" d="M415.535 63.3026C413.429 59.2973 408.883 57.2832 403.427 57.732C398.823 58.1233 394.749 62.8192 395.232 65.3512C395.716 67.8833 399.583 68.9652 400.32 69.8399L397.132 72.1418C396.754 72.4144 396.435 72.7606 396.195 73.1595C395.954 73.5585 395.797 74.0019 395.733 74.4632C395.668 74.9245 395.698 75.394 395.819 75.8436C395.941 76.2932 396.153 76.7135 396.441 77.0793C397.788 78.7827 399.56 80.5321 400.584 81.8212C409.401 81.591 415.926 78.2302 418.286 74.9961C417.4 70.8988 417.584 67.2848 415.535 63.3026Z" fill="white"/>
<path d="M411.207 65.7886C411.833 67.3937 411.969 69.1483 411.598 70.8307C411.226 72.513 410.365 74.0476 409.122 75.2404C407.879 76.4332 406.31 77.2306 404.614 77.532C402.917 77.8333 401.17 77.625 399.592 76.9334C398.014 76.2417 396.677 75.0978 395.749 73.6463C394.821 72.1947 394.344 70.5006 394.379 68.7781C394.413 67.0557 394.958 65.3821 395.944 63.9691C396.929 62.5561 398.312 61.467 399.916 60.8395C402.07 60.0005 404.469 60.0505 406.585 60.9784C408.702 61.9063 410.364 63.6363 411.207 65.7886Z" fill="#263238"/>
<path d="M485.936 169.511C485.81 165.725 485.637 166.058 485.533 162.87C485.464 160.914 485.453 158.738 485.441 156.862C485.437 155.971 485.126 155.109 484.56 154.421C483.994 153.734 483.207 153.262 482.334 153.087C480.815 152.777 479.284 152.489 477.73 152.167C475.739 151.741 473.771 151.28 471.826 150.716C470.306 150.279 468.81 149.796 467.326 149.255C465.841 148.714 464.172 148.104 462.63 147.39C460.811 146.619 459.016 145.79 457.243 144.927C455.252 143.983 453.284 142.994 451.316 141.992C443.743 129.459 443.582 121.195 435.456 111.504L418.008 119.399C418.008 119.399 430.829 142.142 439.553 151.787C444.583 157.334 452.467 159.843 459.499 161.662C464.575 162.962 469.719 163.964 474.864 164.919C476.867 165.287 479.042 165.425 480.769 166.622C482.046 167.602 482.922 169.014 483.232 170.593C483.308 170.915 483.377 171.238 483.439 171.56C483.657 172.527 486.017 171.79 485.936 169.511Z" fill="#4DB5C4"/>
<path opacity="0.8" d="M485.936 169.511C485.81 165.725 485.637 166.058 485.533 162.87C485.464 160.914 485.453 158.738 485.441 156.862C485.437 155.971 485.126 155.109 484.56 154.421C483.994 153.734 483.207 153.262 482.334 153.087C480.815 152.777 479.284 152.489 477.73 152.167C475.739 151.741 473.771 151.28 471.826 150.716C470.306 150.279 468.81 149.796 467.326 149.255C465.841 148.714 464.172 148.104 462.63 147.39C460.811 146.619 459.016 145.79 457.243 144.927C455.252 143.983 453.284 142.994 451.316 141.992C443.743 129.459 443.582 121.195 435.456 111.504L418.008 119.399C418.008 119.399 430.829 142.142 439.553 151.787C444.583 157.334 452.467 159.843 459.499 161.662C464.575 162.962 469.719 163.964 474.864 164.919C476.867 165.287 479.042 165.425 480.769 166.622C482.046 167.602 482.922 169.014 483.232 170.593C483.308 170.915 483.377 171.238 483.439 171.56C483.657 172.527 486.017 171.79 485.936 169.511Z" fill="white"/>
<path opacity="0.3" d="M477.087 152.017C476.396 151.867 475.706 151.718 475.004 151.545C475.061 155.527 473.197 162.387 472.518 164.47L474.704 164.884C476.137 160.739 476.941 156.401 477.087 152.017Z" fill="#4DB5C4"/>
<path opacity="0.3" d="M485.489 156.862C485.486 155.973 485.176 155.112 484.612 154.425C484.048 153.737 483.265 153.265 482.393 153.087L481.242 152.869C481.427 154.177 482.097 155.368 483.118 156.206C483.775 156.814 484.563 157.263 485.42 157.518C485.489 157.311 485.489 157.081 485.489 156.862Z" fill="#4DB5C4"/>
<path d="M409.582 65.8576C410.042 67.6071 408.086 69.4371 406.532 67.9293C405.082 66.3745 403.495 64.9531 401.79 63.6824C400.19 62.6811 402.319 60.9316 404.84 61.6107C405.916 61.8809 406.909 62.4087 407.735 63.1486C408.561 63.8885 409.195 64.8182 409.582 65.8576Z" fill="white"/>
<path d="M409.71 121.471C408.904 121.77 410.377 123.151 410.377 123.151C410.377 123.151 426.49 117.638 436.273 111.964C436.297 111.621 436.238 111.277 436.102 110.96C435.966 110.644 435.756 110.365 435.491 110.146C427.118 114.405 418.51 118.186 409.71 121.471Z" fill="#4DB5C4"/>
<path opacity="0.5" d="M409.71 121.471C408.904 121.77 410.377 123.151 410.377 123.151C410.377 123.151 426.49 117.638 436.273 111.964C436.297 111.621 436.238 111.277 436.102 110.96C435.966 110.644 435.756 110.365 435.491 110.146C427.118 114.405 418.51 118.186 409.71 121.471Z" fill="white"/>
<path d="M421.566 73.9372C424.742 75.5485 427.723 77.2404 430.773 79.1164C432.258 80.0602 433.731 81.0155 435.193 82.0513C436.655 83.0872 438.105 84.1461 439.566 85.343L440.107 85.7919L440.786 86.4134C441.191 86.7754 441.575 87.1597 441.937 87.5643C442.306 87.9672 442.616 88.3585 442.916 88.7153C443.215 89.0721 443.537 89.4979 443.802 89.8662C444.874 91.3458 445.866 92.8827 446.771 94.47C448.555 97.548 450.094 100.761 451.375 104.08C451.612 104.707 451.624 105.397 451.41 106.032C451.195 106.667 450.768 107.209 450.199 107.564C449.631 107.919 448.957 108.067 448.292 107.982C447.628 107.896 447.013 107.583 446.553 107.096L446.495 107.027C444.193 104.575 441.972 101.997 439.739 99.5917C437.506 97.1862 435.239 94.7462 433.363 93.6758C430.75 92.053 427.838 90.4302 424.95 88.8419L416.248 84.0079C414.899 83.2937 413.889 82.0727 413.44 80.6136C412.991 79.1545 413.14 77.5768 413.854 76.2276C414.569 74.8784 415.79 73.8682 417.249 73.4192C418.708 72.9703 420.286 73.1194 421.635 73.8336L421.566 73.9372Z" fill="#4DB5C4"/>
<path opacity="0.8" d="M421.566 73.9372C424.742 75.5485 427.723 77.2404 430.773 79.1164C432.258 80.0602 433.731 81.0155 435.193 82.0513C436.655 83.0872 438.105 84.1461 439.566 85.343L440.107 85.7919L440.786 86.4134C441.191 86.7754 441.575 87.1597 441.937 87.5643C442.306 87.9672 442.616 88.3585 442.916 88.7153C443.215 89.0721 443.537 89.4979 443.802 89.8662C444.874 91.3458 445.866 92.8827 446.771 94.47C448.555 97.548 450.094 100.761 451.375 104.08C451.612 104.707 451.624 105.397 451.41 106.032C451.195 106.667 450.768 107.209 450.199 107.564C449.631 107.919 448.957 108.067 448.292 107.982C447.628 107.896 447.013 107.583 446.553 107.096L446.495 107.027C444.193 104.575 441.972 101.997 439.739 99.5917C437.506 97.1862 435.239 94.7462 433.363 93.6758C430.75 92.053 427.838 90.4302 424.95 88.8419L416.248 84.0079C414.899 83.2937 413.889 82.0727 413.44 80.6136C412.991 79.1545 413.14 77.5768 413.854 76.2276C414.569 74.8784 415.79 73.8682 417.249 73.4192C418.708 72.9703 420.286 73.1194 421.635 73.8336L421.566 73.9372Z" fill="white"/>
<path d="M454.102 109.823L453.124 107.372C453.124 107.372 452.583 104.241 450.638 103.367L444.883 104.276L445.079 104.782C445.608 105.933 445.205 108.04 444.687 109.72C444.17 111.4 445.044 111.619 445.781 111.285C446.195 111.101 446.598 110.353 447.035 109.559C447.25 109.959 447.492 110.343 447.76 110.71L449.176 112.655C449.472 113.058 449.909 113.334 450.4 113.428C450.891 113.522 451.4 113.427 451.823 113.161L453.389 112.16C453.755 111.909 454.025 111.541 454.155 111.117C454.285 110.692 454.266 110.236 454.102 109.823Z" fill="#4DB5C4"/>
<path opacity="0.8" d="M454.102 109.823L453.124 107.372C453.124 107.372 452.583 104.241 450.638 103.367L444.883 104.276L445.079 104.782C445.608 105.933 445.205 108.04 444.687 109.72C444.17 111.4 445.044 111.619 445.781 111.285C446.195 111.101 446.598 110.353 447.035 109.559C447.25 109.959 447.492 110.343 447.76 110.71L449.176 112.655C449.472 113.058 449.909 113.334 450.4 113.428C450.891 113.522 451.4 113.427 451.823 113.161L453.389 112.16C453.755 111.909 454.025 111.541 454.155 111.117C454.285 110.692 454.266 110.236 454.102 109.823Z" fill="white"/>
<path opacity="0.3" d="M416.708 87.173L415.304 87.2881L406.684 108.097C407.155 108.131 407.628 108.092 408.088 107.982C408.088 107.982 419.321 103.793 422.716 102.227C420.437 97.52 416.708 87.173 416.708 87.173Z" fill="#4DB5C4"/>
<path d="M400.975 92.6285C402.022 98.068 403.967 103.296 406.729 108.097C410.942 106.647 417.962 103.908 421.369 102.342C419.079 97.4336 417.047 92.4086 415.281 87.2881C411.678 87.5298 403.771 90.5568 400.975 92.6285Z" fill="white"/>
<path opacity="0.3" d="M409.527 97.1287C409.359 97.6915 409.028 98.1918 408.575 98.5662C408.122 98.9406 407.569 99.1724 406.984 99.2322C406.4 99.2919 405.811 99.177 405.292 98.9019C404.773 98.6269 404.347 98.204 404.068 97.6869C403.79 97.1698 403.671 96.5816 403.726 95.9968C403.782 95.412 404.01 94.8569 404.381 94.4016C404.752 93.9463 405.25 93.6114 405.812 93.4392C406.373 93.267 406.974 93.2652 407.536 93.4341C408.29 93.6604 408.923 94.1766 409.296 94.8694C409.67 95.5621 409.753 96.3747 409.527 97.1287Z" fill="#4DB5C4"/>
<path opacity="0.6" d="M411.724 93.1694C411.679 93.3615 411.577 93.5356 411.432 93.6688C411.286 93.8019 411.104 93.888 410.908 93.9156C410.713 93.9433 410.514 93.9112 410.337 93.8236C410.16 93.7361 410.014 93.5971 409.918 93.425C409.821 93.2528 409.779 93.0556 409.797 92.8591C409.815 92.6626 409.891 92.4761 410.017 92.324C410.143 92.1719 410.311 92.0613 410.501 92.0068C410.691 91.9523 410.892 91.9563 411.079 92.0185C411.313 92.093 411.509 92.2533 411.628 92.4669C411.748 92.6806 411.782 92.9316 411.724 93.1694Z" fill="#4DB5C4"/>
<path opacity="0.6" d="M414.302 92.1681C414.275 92.3016 414.221 92.428 414.142 92.5392C414.063 92.6504 413.962 92.7439 413.845 92.8138C413.729 92.8837 413.598 92.9284 413.463 92.9451C413.328 92.9617 413.191 92.9499 413.06 92.9105C412.93 92.871 412.809 92.8048 412.706 92.716C412.603 92.6272 412.519 92.5179 412.46 92.3949C412.402 92.2719 412.37 92.1381 412.366 92.0019C412.362 91.8657 412.386 91.7303 412.438 91.6041C412.475 91.4824 412.535 91.369 412.616 91.2707C412.697 91.1723 412.796 91.0909 412.908 91.031C413.021 90.9711 413.144 90.934 413.27 90.9217C413.397 90.9095 413.525 90.9224 413.646 90.9596C413.893 91.0342 414.1 91.2029 414.223 91.4292C414.345 91.6554 414.374 91.9209 414.302 92.1681Z" fill="#4DB5C4"/>
<path opacity="0.5" d="M417.918 101.134L407.272 105.335L406.639 103.24L417.273 99.0392L417.918 101.134Z" fill="#4DB5C4"/>
<path opacity="0.2" d="M359.185 261.091C359.161 267.793 358.513 274.478 357.252 281.06C355.894 286.976 353.784 291.304 350.922 294.043C349.589 295.366 348.006 296.411 346.265 297.116C344.524 297.822 342.66 298.174 340.782 298.152C334.866 298.152 330.35 294.925 327.235 288.472C326.688 287.313 326.222 286.117 325.843 284.893C319.264 290.543 313.137 296.701 307.52 303.308L301.408 310.513C304.697 313.846 308.492 316.639 312.653 318.788C319.819 322.494 329.226 324.351 340.874 324.359C342.923 324.359 344.902 324.301 346.824 324.186C353.871 313.759 359.702 302.561 364.203 290.809L381.295 246.244L359.185 261.091Z" fill="black"/>
<path d="M205.109 321.896L225.251 342.037L281.647 288.898C262.207 281.475 224.411 302.548 205.109 321.896Z" fill="#263238"/>
<path d="M275.35 392.103C268.917 385.658 255.209 371.961 255.209 371.961L308.348 315.565C315.725 334.959 294.652 372.79 275.35 392.103Z" fill="#263238"/>
<path d="M352.439 265.154L374.41 222.788L332.044 244.783C318.436 251.84 305.871 260.749 294.708 271.254L222.486 339.24L257.97 374.724L325.956 302.502C336.466 291.336 345.379 278.767 352.439 265.154Z" fill="#4DB5C4"/>
<path opacity="0.6" d="M352.439 265.154L374.41 222.788L332.044 244.783C318.436 251.84 305.871 260.749 294.708 271.254L222.486 339.24L257.97 374.724L325.956 302.502C336.466 291.336 345.379 278.767 352.439 265.154Z" fill="white"/>
<path d="M307.324 304.723C315.524 304.723 322.171 298.076 322.171 289.876C322.171 281.677 315.524 275.029 307.324 275.029C299.124 275.029 292.477 281.677 292.477 289.876C292.477 298.076 299.124 304.723 307.324 304.723Z" fill="white"/>
<path d="M307.323 299.418C312.592 299.418 316.864 295.146 316.864 289.876C316.864 284.607 312.592 280.335 307.323 280.335C302.053 280.335 297.781 284.607 297.781 289.876C297.781 295.146 302.053 299.418 307.323 299.418Z" fill="#4DB5C4"/>
<path opacity="0.3" d="M269.975 361.971L235.229 327.224L263.68 300.453L296.746 333.531L269.975 361.971Z" fill="#4DB5C4"/>
<path d="M212.97 353.684C186.958 355.791 178.338 372.445 175.391 394.577C173.895 405.868 173.228 417.297 163.755 423.903C163.186 424.291 162.757 424.852 162.533 425.504C162.309 426.155 162.302 426.862 162.513 427.518C162.724 428.173 163.142 428.743 163.704 429.141C164.267 429.54 164.943 429.745 165.631 429.727C200.551 428.634 216.837 411.542 218.885 404.406C218.348 408.137 217.386 411.793 216.02 415.306C215.768 415.925 215.719 416.609 215.879 417.258C216.039 417.908 216.4 418.49 216.91 418.922C217.42 419.355 218.054 419.615 218.72 419.666C219.387 419.717 220.053 419.557 220.623 419.207C230.418 413.073 242.71 401.771 243.527 383.436C236.322 373.227 212.97 353.684 212.97 353.684Z" fill="#4DB5C4"/>
<path opacity="0.2" d="M212.97 353.684C186.958 355.791 178.338 372.445 175.391 394.577C173.895 405.868 173.228 417.297 163.755 423.903C163.186 424.291 162.757 424.852 162.533 425.504C162.309 426.155 162.302 426.862 162.513 427.518C162.724 428.173 163.142 428.743 163.704 429.141C164.267 429.54 164.943 429.745 165.631 429.727C200.551 428.634 216.837 411.542 218.885 404.406C218.348 408.137 217.386 411.793 216.02 415.306C215.768 415.925 215.719 416.609 215.879 417.258C216.039 417.908 216.4 418.49 216.91 418.922C217.42 419.355 218.054 419.615 218.72 419.666C219.387 419.717 220.053 419.557 220.623 419.207C230.418 413.073 242.71 401.771 243.527 383.436C236.322 373.227 212.97 353.684 212.97 353.684Z" fill="white"/>
<path d="M247.566 391.297L205.902 349.633L228.092 344.834L252.366 369.107L247.566 391.297Z" fill="#4DB5C4"/>
</svg>
